<?xml version="1.0" encoding="UTF-8"?>
<svg id="Layer_2" xmlns="http://www.w3.org/2000/svg" version="1.1" viewBox="0 0 277 259.5">
  <!-- Generator: Adobe Illustrator 29.0.1, SVG Export Plug-In . SVG Version: 2.1.0 Build 192)  -->
  <defs>
    <style>
      .st0 {
        fill: #fb3d0a;
      }
    </style>
  </defs>
  <g id="Layer_1-2">
    <path class="st0" d="M166.9,27.8c.5-.2,1.8.5,2.3-.4.7-1.4.4-2-.8-2.9,3.5-.9,1.7,4.6,2.6,7.1.3.8,3.3,4.4,4.1,5.6.7,1,5.2,7.2,5.2,8.2v10.8c16.1.7,33,1.7,48.8,4.7,4.5.9,15.6,3.1,18.9,5.8s4.7,14.6,4.2,18.9l3,2c-3.2-.7-4.8,2-7.1,3.1-2.4,1.2-8.1,3.3-9.9,3.7-4.6,1-10.9,1.7-16.4,2.2-2.4.2-6-1.6-8.5,1.2,7.3,1.4,11.8,6,13.8,13.1,1.1,3.9.8,9.1,1.9,12.2.4,1.1,1.8.9,2.2,1.7-1.9,1.3-1.6,2.8-4.5,3.7l3.7,1.9-6,1.1,6.7,2.6-6.7.8,2.2,1.5h-4.5s3,1.5,3,1.5l-5.2.8,4.5,2.2-8.2-.7,6,1.5-6.7.7,2.2,2.2-9.7-1.5,3.7,1.5-4.5.8,2.2,1.5-15.7,3.1v2.1c-4.9-1.7-9.3.8-13.8.7-5.2,0-11.5-2.7-17-2.2l.8-1.5-3.4.7c-3.4-2.2-8.1-1.3-11.5-3.4-5-3-2.1-9.9-3.4-14.6-.4-.5-5.9-1.5-6.8-1.4-1.5.1-2.7,1.4-4.5,1.5-2.2.1-4.7-1.4-7.1-.8l6,2.2-9-.7,3,1.5c-3.8.8-6.7.7-10.5,0l5.2,1.9-8.2-.4,3,.7-2.2,1.5v1.5l2.2.7-8.2-.7,5.2,2.2-6.7.8,3,1.5-8.2-.7,5.2,2.2-8.2-.7,3,1.5-10.5,1.5.8,2.2c-3.6-.1-7.6,2.1-11,2.2-6.6.2-19.4-.6-25.9-2.2-.3,0-2-2.9-5-1.5l3-1.1-4.5-.4,1.5-1.5-9-.8,4.5-1.5c-1.3-.5-3.5-.5-4.5-1.1-.6-.4,0-1.5-.7-2.2-14.5-14.1-22.6-23.2-20.1-45.6.6-5.7,4.6-11.3,5.2-15.8,1.9-15.6-2.5-37.2.2-52.2,1.1-6,5.9-4.2,7-5.8.6-.8.1-2.6.7-3.8.5-.9,1.8-1,2.4-1.7.4-.5.3-1.7,1-2.4,3.5-3,11-.4,14.6-1.2,2.3-.5,2.8-3,7-2.5,2.2.2,3.6,1.5,5,1.7,3.5.5,7.9.4,11.6.8l-7.5.8,7.5,1.5-10.4.9v2.1c4.4.4,7.9,1.4,12.4.1,1.3-.4,2.1.5,1.7-1.6h-12l11.2-1.5-2.2-1.5,5.2.7-.4-1.5c3.3.2,3.4,3.2,5.3,5.2,3.8-4.2,8.7-5,7.1-12l1.2,1.5c1.2.3,4.9-.7,5.8-1.5s.1-3.3,3.5-3c-1.1-2.3-4.3,1-6,.8C98.9-.8,102.7,0,105.5,0v5.2c1.9-.4,4,.8,5.7.8.7,0,7.8-2,8.1-2.2.8-.6,0-2.1.8-2.4,1.2,0,2.5-.1,3.7.1,6.7,1.2,2.6,10.9,4.6,14.2.9,1.5,13.3,8.9,16,11.7,1.5,1.5,3.4,7.5,4.6,1.1,6.3.8,12.1,1.8,17.9-.8-2.1.8-13.6,1.2-15.3,0-2.9-2.1,5-5.6,6.3-2.3l-3,.4c1.6,1.8,6.8,1.8,8.2-.4l-3-1.5,7.9,1.5c.5.4-1,2.2-1.1,2.2h0ZM111.5,11.3c-5.4.4-13.3-4.2-17.2.7,4.3.8,8.7,1.8,13.1,1.5,1.5,0,4.7,0,4.1-2.3h0ZM50.2,14.3h-10.8c-.1,0-4.2-1.7-1.9.7.8.8,12.5,3.2,12.7-.7ZM92.9,17.1c-.4-.9,1.3-2.3.3-2.8-1.7,2.7-3.6,2.8-5.6,5.2l-.4-3-18.3,16.5,47.9,5.2-5.2-.8,4.5-1.5h-5.2s5.2-1.5,5.2-1.5l-9-.8c-.2-1.2,1.8-.8,2.6-.8,2,0,3.7.6,5.6.8l-7.5-18c-2,1.7-2.5,3-5.2,3.7l1.1-3.7c-1.4,2-4.6,2.5-4.9,5.2l-.7-3.7-2.6,2.2c-.2-1.2-2.4-2.2-2.5-2.4h0ZM143,29.2l-15.3-12.7-1.1.4,1.5,2.6c-4.3-.7-8.8.9-13.2,1.4l-.5-1.2-1.3.5c-.6-1.3-.2-3.5-2.3-2.9l9.3,19.4c1.1,0,7.4-4.5,9-5.1,2.1-.9-.7,2.1,1.5,1.5,4.2-1.2,7.3-4.4,12.4-3.7h0ZM78.6,19.5l-17.2.4c1.3,1.7,2.1,2.1,4.1,1.1l.4,1.5,1.5-1.5.3,1.4,1.5-.7.4,1.5c1.4-.6.3-1.6,2.6-1.3l.7,1.3c.6-2.5,4.6-1.2,5.6-3.7ZM32.8,22.7c-1.4-.7-3,.5-4.3.6.3,2.2,2,4.2-.8,4.9v1.8c9.8,3.7,20.3,3.3,30.4,5.3l1.8-1.5c-.3,2.2,2.6,1.5,4.1,2.2.9,0-.6-3.7,1.9-3l-.4-1.5h-4.1l3.7-1.5-9.7.7,4.1-.7c1.2-1-.9-.8-1.5-.8-2.9.1-5.7,1.1-8.6.8l4.5-1.5-11.2.7,4.5-.8v-.7h-5.2s3.7-1.5,3.7-1.5l-9,.7,3.7-1.5c-2.2.1-4.6-.4-6.5-1.3-.9-.4-.9-1.4-1.1-1.5h0ZM63.6,37.5l-37.4-5.3v2.2l1.5-.8,1.5,7.5.8-5.2.8,6.7,1.5-3.7v9.3s2.2,1.2,2.2,1.2l-3.7.8,30.7,3c1.3-5.1,2.8-10.3,2.2-15.7h0ZM121.3,40.5l-55.4-6.7c.6,6.4-1.4,12.5-2.2,18.7,19.6-8.8,46.3-5.9,59.9,12l-4.6-17.1-41.5-5.3-.7,1.4c-.7,0,0-2.5-1.9-1.5l-.4,1.5c-1.9-2.3-5.3-2.7-7.9-1.5l.4-6.8,52.3,6,2.3,9c1.5-3.3-2.2-6.6-.4-9.7h0ZM167.7,36c-7.6.7-15.2,1.8-22.1-2.2l-1.9,2.6,1.2,1.9c4-2.6,1.7-.5,3.5.2.8.3,6.1,1.1,6.9,1,1.5-.2,4.9-1.6,8.2-2.1,1-.2,4.1-.3,4.2-1.4h0ZM142.9,36.8c-.6-.4-6.4,1.6-6.7,3,8.5,1.2,16.8,4,25.4,3,.3,1.2-1.3.3-1.5,1.2-.3,1.2.2,2.8,0,4-3.3.7-.5-4.3-.7-4.5h-2.2v2.2l-1.5-1.5v3.7l-3.8.7h9.7l-.7-4.5c2.9-.8.9,3.6,1.5,4.5l11.1-2.3v-3.6s-3.7-1.6-3.7-1.6l5.2-1.1c-3.4-1.1-6.6.9-10.1,1.2-7.1.5-14.3-.3-21.3-.9l-.9-3.7h0ZM104.8,40.5l-28.4-3v2.9c8.9.5,18.9,3.3,27.6,3.6,1.2,0,2-.4,3.1-.6l-3.7-1.5,1.5-1.5h0ZM154.9,47.2l-1.2-2.9c-7.8,0-14.8-2.4-22-4.6v3.7c3.3-.4,3.3,2,5,2.9,4,2.1,13.6,1.5,18.2.9ZM178.9,46.5c-15,7.7-30.7,3.5-46.4,1.5l1.5,14.2,1.5-3v5.2s1.1-3,1.1-3l2.4,3.6c13.4,2.3,27.1,1.9,39.9-2.8v-15.7h0ZM90.2,50.2c-3.6-.5-7.9.3-11.6,0l12.1,1.7c22,4.6,38,24,39.9,46.2.9-19.4-12.1-37.7-30.1-44.7-2.3-.9-8.2-2.9-10.3-3.2ZM113,99.2c.6,4.8,0,11.4,0,16.5s-1.9,4.5-1.5,6.4c1.1,0,1.4-2.3,1.7-3.2,2.2-7.7,2.5-15.9,1.3-23.8l1.5,8.2.7-7.1c-.8-7.1-4.1-12.7-6.7-19.1,11.7,11.3,11.1,30.5,6,44.9,2.1,2.2,5.2-10.8,5.2-11.6v-16.5c0-.5-2.1-3.8,0-4.1,2,7.1,2.3,14.4,2.6,21.7,3.1-14,.8-29.7-8.6-40.8-2.3-2.8-7.8-7.8-11-9.3-3.6-1.6-20.8-6.3-24.6-6.7-5.9-.6-11.6,1.1-17.5.7l12.7,1.5-7.5,1.5c20.7-.4,43.3,20.6,45.7,40.8h0ZM181.3,71c7.3.6,14.7-.3,21.9.1,8.1.5,18,3.9,25.5,3.8,3,0,19.7-2,19-5.6-.7-4-22.5-7.2-26.7-7.8-13.7-2.1-27.6-3.4-41.4-3.1.1,4.4-.8,8.7,1.6,12.6h0ZM110,113.1v-10.8c0-16.4-22.6-42.3-39.3-42.3h-16.1c-.1,1.1,2.9,1,3.7,1,2.1,0,4.3-.6,6.5-.3l-.4,1.5c1.4.3,1.7-1.2,3-1.2,2.6.1,5.9,3,8.9,2.7.7,2.2-1.8,1.3-2.2,3,3.5-1.4,4.7-1.8,8.2,0l-.7,1.4c2.8-.4,7.7,3.2,9.5,5.2,1.5,1.7-.3.5,2.4,2.7,2.4,1.9,6.4,7.9,8.2,10.5,1.4,2,1.8,2.9.1,4.8l2.2-.8c.5,4.2,5.5,9.2,2.3,12.7h2.2c.2,1.6,0,3.2.2,4.8.2,1.1.4,4.5,1.4,5h0ZM169.9,67.4c8.6,1.9,1.8,7.2.9,12.5-.2,1.6-.5,3.2.2,4.7.7,1.2,9.1-1.5,10.1-2.7,1.8-1.9-.7-4.1-1.3-6.2-.5-1.7-.6-4.4-1.1-5.6-.7-1.6-3.8-1.7-2.9-5l-6,2.2h0ZM91.3,86.9c0-1.1.9-1.9.4-3-1.6-3.3-12.8-11.7-16.5-13.5-10.2-5-23.9-3.3-34.8-1.5-.2,1.4,1.6.7,2.4.5,2.1-.3,4.1-1.1,6.2-1.3,16.9-1.3,31.2,6.6,42.3,18.7h0ZM91.3,100.4c-5.7-23.4-37.9-39.6-58.6-24.6-1.1.8-6.1,5.4-6.5,6.2-.1.3-.2,1.2.4,1.1,17.2-18.4,44-11.4,58.3,6.8l6.4,10.4h0ZM249.2,72.7c-10.6,3.8-22.1,4-33.1,6.2-3.5.7-21.5,4.6-23.1,6.1-2.1,2,.3,4.3,1.9,5.6l1.1-1.5c-.6,3.6,10.8,7.5,13.1,7.5,1.9,0,9-3,12.2-3.6,6.6-1.2,22.1-1.5,27.1-5.1,3.6-2.6,1.1-11.4.8-15.3h0ZM221.6,75.7c-4.5-.6-10.2-2.2-14.6-2.3-3,0-5.6,1.7-8.2,1.9-1.1,0-16.8-1.6-16.9-.7,1.1,5.6,3.5,9.6,7.9,13.1.8-3.2,2.7-4.5,5.6-5.6l26.2-6.4h0ZM148.2,98.1v-20.6c0-.1-.7-2.2-1.5-1.9v13.1s1.5,9.3,1.5,9.3ZM146,101.9v-25.4c-1.1,0-1.3,2.7-1.4,3.5-.7,6.5,1.3,12.9.7,19.4l.8,2.6ZM163.2,78.7v30.7l1.5-7.1c-.6-7-.5-14-.8-21,0-.9.6-2.8-.8-2.6h0ZM75.6,88.4c-6.1-8-18-10-26.9-6l3,1.5c-3.7.8-6.4,3.8-9,6.4l3-.4c-1.4,2.3.2,4.8,0,6.3,0,.2-2.8,1.2-1.5,4.2l-1.5-3.7c-.1,4.8-.3,9.3,1.5,13.9.2.4.8,2.5,1.5,1.4,0-1-1.9-3.9,0-4.1.5,3.4,3.3,8.8,6,10.9,1,.8,2.1,1.1.8-.8-.9-1.3-2-2.5-3-3.8l1.5-.3-.4-3c1.2,1,4.9,7.1,6.4,6l-1.5-2.2c1.8-.2,2.6,1.9,4.2,2.9,4.7,2.7,10.2,3.8,15.2,1.6-2.7,3.2-8.7,2.8-12.2,3.8-.6.2-.5,1.5-1,1.5-1.3,0-4.3-1.5-6.3-.8l5.2,3-2.2,1.5,6,1.5c.2,1.3-1.7.7-2.4.6-1.7-.4-3.2-1.5-5-1.3l3.7,2.2-5.2-.7c5.5,4.6,14.2,3.6,21,2.2-.5-.7-.6-2.6-.9-2.9-.6-.5-2.3.5-2.1-.9,3.5.2,7.1-1.1,9.7-3.4l-8.8,2.4-5.8.2,9.2-2,4.7-2.4c-4.4,1.2-6.8,2.4-11.6,2.2-.9,0-2.8.6-2.6-.7l9-.8-4.5-1.5c9.7-1.7,14.2-10,12.7-19.5l-.8,7.5-1.1-2.2-1.1,2.2-.8-3c.2,8.8-8.2,12-15.7,11.2l6-1.5c-8.6,1.6-18.4-7.1-19.5-15.4-.3-2.4,4.9.1,6.4.3,2.1.2,4.2,0,6.3,0-1.5-4.8-4.5-10.3-2.3-15.4l9.7,2.7c.7-2.7-2.1-2.9-3.7-4.1l-10.5-2.6c3.3-.3,6.4.3,9.6,1.3s4.8,2.7,7.7,3.9h0ZM151.2,107.8v-27.7h-.8v27.7h.8ZM154.9,113.1v-28.1c0-.2-.8-4.2-1.5-4.1v17.6s1.5,14.6,1.5,14.6ZM189.4,104.1l5.9-4.1c-3.4-6.2-6.5-13-13-16.6l-5.6,2.8c5.3,5.1,10,11,12.7,17.9h0ZM48.7,141.5c-2.1-2.2-5.1-3.6-7.5-5.6-11.4-9.8-18.4-25.1-16.4-40.4.4-3,2.6-5.8,2.6-8.7-12.6,18.7,1.4,47.6,21.3,54.6h0ZM142.2,89.1v10.5l-1.5-5.2-.8,15,1.5-2.2v6.7s.8-5.2.8-5.2l1.5,3.7v-14.6l-1.5-8.6h0ZM178.9,112.7v-22.1l-1.5,7.9c-.7,3.8,1.4,11.9-1.2,14.5-4.5,4.6-17.7,6.3-23.9,6.1-4.3-.2-9.3-1.7-13.6-2.1-.9,0-3.1-.7-2.5,1,.2.7,13,2.5,14.6,2.6,9.9.7,20.8-.5,28.1-7.8h0ZM221.3,108.4c3.5-4.3-2.3-6.5-5.6-7.8-7.8-3.2-17.1-3.5-23.4-9.9-.3.3,3.6,7,4.1,7.5,1,.9,2,.1,2.6.4,2,1,7,8.1,7.6,10.6l8.3,3c.8,0,5.7-3.1,6.3-3.8h0ZM199.8,116.8l-2.6-1.2-4.1,2.4-7.4-11.2c.2-1,2.1-1.5,1.8-2.8-.2-.9-3.5-6.5-4.3-7.7-.6-1-1.9-3-2.9-3.5l-.8,27.7,14.4-1.7,5.8-2h0ZM65.9,146c29.2,3.5,40-31.3,25.8-52.4l4.2,16.8c.7,14.4-5.3,29.6-20.2,33.7l-9.7,1.9h0ZM89.8,128.8c-18.9,24.7-56.1,5.3-60.7-21.2l-2.1-11.7c-2.1,26.1,17.8,49.9,45.1,46.2,7.1-.9,15.8-6,17.8-13.3h0ZM196.8,101.9l-6,3.4,5.8,7.7,5.5-4-5.2-7.1ZM189.4,106.3l-1.1,1.5c1.4,1,4.2,7.8,6,7.5s.6-1.5,0-2.2c-1.6-2.1-4.4-3.8-4.9-6.7h0ZM221.6,129.6c8.5-3.9,4.7-14.7,3-21.7l-7.4,6.4c3.7,4.4,5,9.6,4.4,15.3h0ZM56.1,133.3c-6.4-2.1-10.7-7.5-15.4-12l-7.8-12.7c1.3,10.5,8.8,19.6,18.2,24.1.8.4,4.7,2.4,5,.6h0ZM213.3,137.8c8.2-5.6,8.1-18.7,0-24.3-4.9-3.4-10.3-4.8-14.2.7,4.5,3.7,9.8,1.9,13.3,7.6,3.9,6.2-.9,9.6.9,16h0ZM95.1,137.8c6.2-5.4,7.6-14.7,8.2-22.4-2.2,1.1-1.2,4.9-1.7,6.9-.5,2.4-1.3,5.2-2.2,7.5-1.2,3-3.3,5.1-4.3,8h0ZM178.1,121.3v-5.2l-7.5,4.5c.6,1.5,5.3,1.2,4.5-.8l1.5,1.5v-1.5l1.5,1.5h0ZM211.1,131.1c2.3-6.1-.6-11.7-7.2-12.5-7.3,1.5-14.9,3.5-22.4,4.2-8.5.9-18.9-.3-26.8.9-3.1.5-6.8,2-7.3,5.4,0,3,26.1,2.9,28.9,2.7,6.1-.4,9.3-3.3,12.8-3.7,7.1-.8,15.6-.4,22,2.9h0ZM149.7,122.8c-5.9,1.1-17.1-3.7-22.1-3-.9.1-1.5.3-1.8,1.3v4.8c0,0,1.7-2.9,1.7-2.9,4.7.9,2.8,3.8,3.9,4.4.6.3,12.6,2.4,13.2,2.3,0,0,5-6.8,5-6.8ZM201.4,144.5v-11.6c0-.5-1.2-3-2-3.3l-11.4.7c0,4.1.5,8.2.7,12.3,0,.9-.6,2.8.8,2.6v-10.9c0-.4-.8-1.1,0-2.1,1.4-2.1,8.1-1,10.6-1.3v12.4c0,.1,1,1.2,1.5,1.1h0ZM185.6,132.5c-12.6,1.8-25.7,2.8-38.2-.7.5,2.7.2,11.4,2,12.8,3.5,2.6,21.2,3.2,26.1,2.9,3.7-.2,7.8-1.5,11.6-1.5l-1.5-13.5h0ZM197.6,132.5l-6.7.8.8,10.5,6.7-.8-.8-10.5h0ZM211,139.9v-6.6c-1.6.7,0,3.6-1,5.2-.5.8-5.1,2.8-5.6,2.2l-.7-4.5v7.5l7.4-3.9Z"/>
    <polygon class="st0" points="14.6 165.5 24.3 193.9 32.9 165.5 46.8 165.5 47.9 166.6 47.9 203.6 38.9 203.6 38.9 172.2 28.7 203.7 18.8 203.6 9 173 9 203.6 0 203.6 0 165.5 14.6 165.5"/>
    <polygon class="st0" points="243.6 165.5 253.4 194.7 262 165.5 277 165.5 277 203.6 268 203.6 268 173 258.1 203.6 248.2 203.7 238 172.2 238 203.6 229 203.6 229 166.6 230.2 165.5 243.6 165.5"/>
    <polygon class="st0" points="154.9 165.5 154.9 181.2 172.2 181.2 172.2 165.5 181.1 165.5 181.1 203.6 172.2 203.6 172.2 187.9 154.9 187.9 154.9 203.6 146 203.6 146 165.5 154.9 165.5"/>
    <path class="st0" d="M162.2,219.6c32.8-4.9,28.7,49-3,38.5-16-5.3-15-35.9,3-38.6h0ZM166,226.3c-8.8.3-9.5,9.7-8.8,16.7.8,8,7.4,12,14.5,7.7,6.6-4,6.8-24.8-5.7-24.4Z"/>
    <path class="st0" d="M82.2,165.6l12.8,38.1-8.3-.3-3.5-7-16.8.3-2.3,6.9h-8.9c0,.1,13.1-37.3,13.1-37.3l13.8-.6h0ZM81.6,189.4c-1.8-4.7-3.2-10.9-5.2-15.4-.3-.7-.5-1.8-1.5-1.8l-5.2,17.2h12Z"/>
    <polygon class="st0" points="220.1 165.5 220.1 172.2 199.1 172.2 199.1 181.2 218.6 181.2 218.6 187.2 199.1 187.2 199.1 196.9 220.1 196.9 220.1 203.6 190.1 203.6 190.1 165.5 220.1 165.5"/>
    <path class="st0" d="M105.5,251.6h21v6.7h-32.9l.2-7.3c6-4.5,14.2-8.8,19.7-13.6,12.8-11.4-12.3-17.7-11.6-1.5l-8.2-.3c-1.9-1.2,1.8-9,3-10.5,6.3-7.9,27-8.4,29,3.2s-13.3,16.8-20,23.4h0Z"/>
    <path class="st0" d="M115.3,191.3c-.9-4.6-10.7-17.8-13.1-23.6-.3-.8-.6-1.3-.4-2.2,2.5.4,7.5-.9,9.4.7,2.3,2,7.3,17.7,8.2,18,1.5.4,1.1-.8,1.5-1.5,1.3-2.4,7.2-16.6,8-17.1h9.6c1.2.8-14.2,24.4-14.2,26.4v11.6h-9c-.5-3.6.7-9,0-12.4h0Z"/>
    <rect class="st0" x="133.2" y="250.8" width="9" height="7.5"/>
    <path class="st0" d="M166.9,22.5c.2,1.3-1.8.8-2.6.7-4.7-.4-8.2-.7-13.1,0l6.3-1.5,9.4.8h0Z"/>
    <path class="st0" d="M172.9,82.4c-.2-3.5,1.1-7.1,3.4-9.7,3.7,4.7,4.3,10.5-3.4,9.7Z"/>
  </g>
</svg>