<?xml version="1.0" encoding="UTF-8"?>
<svg id="Layer_2" data-name="Layer 2" xmlns="http://www.w3.org/2000/svg" viewBox="0 0 276.95 259.47">
  <g id="Layer_1-2" data-name="Layer 1">
    <path d="M166.92,27.76c.46-.2,1.81.49,2.28-.44.73-1.39.42-2.01-.78-2.93,3.54-.94,1.66,4.62,2.64,7.09.32.79,3.27,4.4,4.13,5.63.69,1,5.2,7.24,5.2,8.24v10.85c16.05.67,32.98,1.67,48.79,4.73,4.52.87,15.57,3.1,18.87,5.83s4.68,14.6,4.17,18.88l3.02,1.99c-3.21-.66-4.82,1.99-7.06,3.06-2.44,1.16-8.1,3.28-9.91,3.67-4.65,1.01-10.92,1.66-16.42,2.18-2.35.22-5.98-1.62-8.52,1.2,7.28,1.45,11.78,6.02,13.84,13.09,1.14,3.91.79,9.14,1.89,12.15.38,1.05,1.8.91,2.22,1.7-1.9,1.33-1.62,2.82-4.49,3.74l3.74,1.86-5.99,1.13,6.74,2.61-6.73.76,2.24,1.48-4.48.02,2.99,1.48-5.23.76,4.48,2.23-8.23-.73,5.98,1.5-6.73.74,2.24,2.23-9.72-1.48,3.73,1.5-4.48.75,2.24,1.48-15.66,3.09-.07,2.13c-4.83-1.69-9.2.79-13.71.72-5.18-.09-11.51-2.71-16.97-2.2l.76-1.49-3.41.67c-3.42-2.18-8.1-1.33-11.52-3.35-5.04-2.98-2.13-9.92-3.37-14.6-.36-.5-5.87-1.48-6.76-1.42-1.46.1-2.66,1.45-4.53,1.53-2.2.1-4.69-1.35-7.1-.8l5.98,2.23-8.97-.73,2.99,1.48c-3.75.82-6.72.72-10.47.02l5.24,1.86-8.24-.37,2.99.74-2.25,1.5v1.49s2.24.74,2.24.74l-8.23-.73,5.23,2.23-6.73.76,2.99,1.48-8.23-.73,5.23,2.23-8.23-.73,2.99,1.48-10.47,1.51.75,2.23c-3.55-.15-7.61,2.09-10.97,2.2-6.62.21-19.44-.64-25.94-2.22-.28-.07-2-2.85-5.01-1.48l3-1.12-4.49-.38,1.49-1.48-8.97-.76,4.48-1.48c-1.31-.48-3.45-.48-4.53-1.14-.64-.39-.03-1.54-.7-2.19-14.5-14.07-22.62-23.25-20.13-45.62.63-5.68,4.62-11.26,5.18-15.78,1.93-15.62-2.52-37.22.16-52.24,1.08-6.04,5.93-4.24,6.97-5.76.58-.84.14-2.65.71-3.79.47-.95,1.76-1.01,2.38-1.73.43-.49.26-1.73.99-2.35,3.55-3.02,11.01-.44,14.59-1.16,2.35-.47,2.76-2.96,7.01-2.49,2.23.24,3.63,1.52,5.01,1.72,3.5.5,7.94.4,11.56.79l-7.48.75,7.48,1.48-10.4.85-.09,2.15c4.5.41,7.96,1.37,12.5.11,1.28-.35,2.08.55,1.73-1.6h-11.98l11.22-1.51-2.24-1.48,5.23.73-.41-1.47c3.32.25,3.45,3.2,5.28,5.2,3.82-4.23,8.66-4.96,7.12-11.96l1.22,1.53c1.25.29,4.86-.67,5.78-1.49s.13-3.29,3.47-3.05c-1.1-2.35-4.34.96-5.98.75,1.59-2.99,5.43-2.18,8.24-2.24v5.24c1.93-.39,3.97.79,5.67.8.68,0,7.78-1.97,8.12-2.21.8-.56.02-2.14.85-2.37,1.2.06,2.46-.11,3.65.1,6.67,1.2,2.57,10.88,4.55,14.16.91,1.51,13.27,8.9,16.04,11.66,1.47,1.47,3.41,7.49,4.56,1.08,6.3.78,12.15,1.79,17.95-.76-2.08.82-13.63,1.24-15.28.05-2.9-2.1,4.98-5.64,6.29-2.3l-2.99.38c1.57,1.76,6.8,1.8,8.23-.36l-2.99-1.5,7.87,1.49c.47.37-1.02,2.2-1.13,2.25ZM111.53,11.29c-5.39.43-13.32-4.19-17.22.74,4.3.81,8.7,1.81,13.13,1.54,1.48-.09,4.66-.09,4.08-2.27ZM50.15,14.28h-10.85c-.14,0-4.25-1.67-1.87.74.81.82,12.48,3.19,12.72-.74ZM92.93,17.13c-.37-.85,1.34-2.26.26-2.84-1.69,2.7-3.61,2.81-5.61,5.23l-.37-2.99-18.35,16.45,47.9,5.24-5.23-.75,4.48-1.48-5.23-.02,5.23-1.48-8.97-.76c-.2-1.24,1.82-.81,2.64-.78,2,.07,3.65.58,5.58.78l-7.49-17.96c-1.98,1.73-2.53,2.97-5.22,3.74l1.12-3.74c-1.43,2-4.61,2.49-4.88,5.24l-.74-3.74-2.62,2.23c-.17-1.16-2.43-2.22-2.5-2.38ZM142.96,29.24l-15.35-12.71-1.11.36,1.49,2.62c-4.28-.66-8.77.88-13.15,1.42l-.46-1.2-1.29.48c-.6-1.28-.16-3.47-2.31-2.93l9.34,19.38c1.11.08,7.38-4.46,9.01-5.15,2.11-.9-.67,2.09,1.47,1.47,4.18-1.21,7.33-4.37,12.37-3.74ZM78.59,19.53l-17.21.36c1.28,1.67,2.1,2.15,4.06,1.11l.44,1.51,1.48-1.49.35,1.4,1.46-.67.45,1.51c1.38-.65.31-1.62,2.62-1.33l.74,1.34c.6-2.52,4.6-1.25,5.61-3.74ZM32.77,22.7c-1.37-.7-2.96.45-4.33.58.31,2.17,2.03,4.16-.76,4.86l.04,1.83c9.76,3.65,20.27,3.31,30.39,5.28l1.77-1.49c-.29,2.19,2.59,1.5,4.12,2.25.89,0-.59-3.67,1.87-3.02l-.36-1.49h-4.11s3.74-1.49,3.74-1.49l-9.72.73,4.11-.74c1.21-1.02-.91-.82-1.52-.79-2.89.15-5.65,1.13-8.58.77l4.48-1.48-11.22.73,4.48-.75v-.73s-5.23-.02-5.23-.02l3.74-1.48-8.97.73,3.74-1.48c-2.21.11-4.56-.35-6.55-1.29-.92-.44-.92-1.44-1.09-1.53ZM63.58,37.52l-37.38-5.27v2.25s1.48-.76,1.48-.76l1.52,7.48.75-5.23.75,6.73,1.48-3.73-.04,9.32,2.29,1.15-3.74.75,30.68,3.01c1.31-5.14,2.79-10.31,2.21-15.69ZM121.26,40.49l-55.38-6.74c.59,6.4-1.44,12.45-2.25,18.71,19.6-8.79,46.31-5.92,59.87,11.98l-4.61-17.1-41.48-5.29-.68,1.44c-.66.08.08-2.49-1.87-1.5l-.37,1.49c-1.93-2.27-5.27-2.7-7.86-1.5l.42-6.75,52.26,5.96,2.33,9.03c1.46-3.29-2.17-6.59-.37-9.73ZM167.66,36c-7.61.65-15.17,1.79-22.1-2.23l-1.87,2.57,1.16,1.9c4.04-2.63,1.67-.52,3.5.24.81.34,6.1,1.14,6.88,1.04,1.48-.19,4.95-1.63,8.22-2.13.97-.15,4.06-.3,4.2-1.4ZM142.95,36.75c-.61-.44-6.37,1.58-6.72,2.98,8.47,1.18,16.82,3.99,25.45,3.01.32,1.23-1.3.34-1.51,1.22-.28,1.17.18,2.75.01,4.01-3.32.68-.53-4.33-.74-4.48h-2.24s0,2.23,0,2.23l-1.48-1.49v3.74s-3.75.74-3.75.74h9.73s-.74-4.48-.74-4.48c2.89-.77.85,3.57,1.5,4.49l11.14-2.32-.02-3.57-3.64-1.59,5.23-1.13c-3.38-1.11-6.65.91-10.07,1.15-7.08.51-14.26-.28-21.28-.86l-.85-3.65ZM104.79,40.49l-28.44-3,.05,2.94c8.84.48,18.81,3.34,27.5,3.6,1.23.04,2.01-.36,3.14-.57l-3.74-1.5,1.49-1.48ZM154.94,47.21l-1.24-2.88c-7.8.05-14.79-2.39-21.96-4.61l.05,3.69c3.23-.4,3.28,2,4.97,2.89,4.01,2.09,13.65,1.52,18.18.91ZM178.89,46.47c-14.97,7.66-30.68,3.47-46.41,1.5l1.5,14.21,1.48-2.99.02,5.23,1.11-2.99,2.39,3.6c13.37,2.27,27.15,1.95,39.9-2.85v-15.72ZM90.19,50.21c-3.59-.45-7.92.33-11.6,0l12.13,1.72c22.01,4.58,38.02,23.97,39.89,46.19.89-19.44-12.14-37.7-30.12-44.74-2.26-.88-8.17-2.9-10.3-3.17ZM113.02,99.24c.57,4.76,0,11.44,0,16.47,0,1.27-1.86,4.54-1.49,6.36,1.08.01,1.45-2.29,1.7-3.15,2.24-7.72,2.53-15.86,1.29-23.79l1.5,8.23.73-7.1c-.8-7.06-4.14-12.7-6.72-19.09,11.73,11.26,11.07,30.47,5.98,44.91,2.06,2.23,5.24-10.77,5.24-11.6v-16.47c0-.5-2.08-3.79,0-4.11,1.98,7.12,2.27,14.37,2.63,21.71,3.06-13.96.82-29.7-8.59-40.82-2.32-2.75-7.83-7.84-11.02-9.26-3.55-1.58-20.78-6.35-24.64-6.73-5.92-.57-11.59,1.14-17.5.67l12.72,1.5-7.48,1.48c20.69-.37,43.26,20.6,45.66,40.8ZM181.26,71.04c7.27.57,14.68-.32,21.95.14,8.08.51,17.97,3.87,25.47,3.79,2.96-.03,19.69-1.96,19.04-5.59-.71-3.98-22.54-7.19-26.66-7.82-13.66-2.06-27.61-3.4-41.42-3.12.12,4.39-.76,8.68,1.63,12.6ZM110.03,113.08v-10.85c0-16.44-22.61-42.29-39.3-42.29h-16.09c-.13,1.14,2.86,1.03,3.65,1.05,2.11.05,4.29-.59,6.46-.3l-.38,1.49c1.45.34,1.69-1.21,3.04-1.15,2.57.11,5.88,3.03,8.94,2.67.65,2.17-1.8,1.3-2.25,2.98,3.53-1.43,4.65-1.82,8.19.07l-.71,1.43c2.82-.42,7.69,3.21,9.46,5.23,1.5,1.7-.35.49,2.41,2.7,2.38,1.91,6.41,7.87,8.22,10.5,1.4,2.04,1.8,2.92.12,4.78l2.23-.75c.51,4.17,5.47,9.16,2.26,12.72l2.19.04c.16,1.58-.07,3.15.15,4.74.16,1.14.36,4.53,1.41,4.96ZM169.92,67.42c8.61,1.89,1.76,7.25.93,12.54-.25,1.58-.52,3.21.17,4.73.71,1.23,9.05-1.5,10.14-2.66,1.79-1.91-.67-4.07-1.3-6.19-.52-1.73-.58-4.42-1.11-5.63-.7-1.61-3.84-1.72-2.85-5.02l-5.98,2.24ZM91.31,86.89c-.05-1.06.95-1.86.42-2.96-1.6-3.33-12.84-11.72-16.5-13.51-10.16-4.98-23.91-3.31-34.8-1.49-.17,1.37,1.6.65,2.41.54,2.07-.27,4.1-1.13,6.21-1.29,16.93-1.26,31.18,6.64,42.27,18.7ZM91.31,100.36c-5.69-23.44-37.92-39.56-58.62-24.57-1.1.79-6.12,5.42-6.48,6.24-.15.33-.19,1.23.36,1.11,17.23-18.43,44.02-11.37,58.32,6.8l6.42,10.41ZM249.25,72.66c-10.55,3.77-22.12,4.02-33.1,6.19-3.48.69-21.49,4.64-23.05,6.14-2.11,2.04.28,4.33,1.89,5.63l1.11-1.49c-.64,3.57,10.79,7.52,13.1,7.53,1.85,0,8.96-2.97,12.2-3.57,6.62-1.23,22.06-1.47,27.06-5.13,3.6-2.63,1.05-11.39.79-15.3ZM221.55,75.67c-4.5-.55-10.18-2.24-14.62-2.28-2.99-.03-5.61,1.7-8.18,1.9-1.15.09-16.81-1.58-16.88-.74,1.13,5.57,3.46,9.56,7.87,13.09.77-3.15,2.71-4.47,5.63-5.59l26.18-6.37ZM148.2,98.11v-20.58c0-.12-.73-2.19-1.49-1.87l-.04,13.13,1.53,9.32ZM145.96,101.86v-25.45c-1.11-.06-1.32,2.68-1.41,3.46-.7,6.49,1.28,12.86.66,19.38l.75,2.61ZM163.17,78.65v30.69l1.53-7.07c-.59-6.99-.49-14-.78-21-.04-.92.57-2.78-.75-2.61ZM75.6,88.38c-6.08-8.02-17.95-9.96-26.94-5.97l2.98,1.48c-3.73.85-6.44,3.75-8.96,6.37l2.97-.37c-1.41,2.31.21,4.76.05,6.27-.03.25-2.85,1.24-1.55,4.2l-1.48-3.74c-.12,4.78-.28,9.34,1.46,13.88.16.43.85,2.5,1.54,1.45.06-.96-1.91-3.87-.02-4.1.49,3.39,3.3,8.8,5.98,10.86,1.01.77,2.1,1.13.75-.75-.92-1.28-2-2.52-2.97-3.77l1.48-.35-.37-3c1.19.98,4.91,7.11,6.37,5.98l-1.5-2.23c1.85-.21,2.61,1.94,4.24,2.87,4.69,2.65,10.2,3.76,15.22,1.62-2.68,3.19-8.74,2.81-12.2,3.76-.63.17-.51,1.47-.95,1.49-1.34.07-4.32-1.53-6.31-.76l5.23,3-2.23,1.48,5.98,1.51c.19,1.32-1.7.74-2.44.57-1.68-.38-3.2-1.51-5.03-1.32l3.73,2.23-5.24-.73c5.46,4.6,14.18,3.63,20.96,2.23-.54-.71-.59-2.58-.91-2.85-.63-.54-2.33.53-2.08-.88,3.49.17,7.05-1.12,9.72-3.38l-8.8,2.43-5.79.2,9.19-2.04,4.65-2.45c-4.44,1.18-6.77,2.4-11.61,2.24-.9-.03-2.79.56-2.61-.74l8.97-.76-4.48-1.48c9.73-1.73,14.22-10.03,12.71-19.47l-.75,7.48-1.12-2.25-1.12,2.25-.75-2.99c.25,8.75-8.17,12-15.72,11.22l5.98-1.48c-8.62,1.6-18.41-7.14-19.45-15.37-.3-2.38,4.91.14,6.43.32,2.08.24,4.2.02,6.28.08-1.49-4.85-4.55-10.32-2.26-15.39l9.75,2.66c.69-2.72-2.08-2.89-3.74-4.11l-10.47-2.61c3.33-.31,6.42.27,9.56,1.28s4.81,2.74,7.65,3.94ZM151.2,107.85v-27.69h-.75v27.69h.75ZM154.94,113.08v-28.07c0-.22-.8-4.16-1.49-4.11l-.04,17.62,1.53,14.56ZM189.38,104.1l5.88-4.1c-3.35-6.21-6.54-13.02-13-16.64l-5.61,2.78c5.28,5.11,9.99,11.02,12.73,17.95ZM48.65,141.52c-2.12-2.21-5.12-3.55-7.49-5.6-11.41-9.85-18.39-25.06-16.39-40.37.39-2.98,2.62-5.75,2.56-8.67-12.61,18.67,1.44,47.63,21.33,54.63ZM142.22,89.13v10.48l-1.49-5.24-.75,14.96,1.48-2.24.02,6.73.75-5.23,1.48,3.73v-14.58s-1.49-8.62-1.49-8.62ZM178.89,112.71v-22.08l-1.49,7.87c-.67,3.85,1.41,11.87-1.21,14.51-4.53,4.56-17.67,6.29-23.87,6.06-4.28-.16-9.29-1.66-13.58-2.14-.91-.1-3.11-.68-2.52,1.02.24.7,12.99,2.51,14.61,2.62,9.86.69,20.83-.47,28.06-7.85ZM221.32,108.38c3.5-4.33-2.27-6.5-5.56-7.84-7.81-3.16-17.05-3.49-23.39-9.91-.32.35,3.56,6.98,4.15,7.51,1.04.94,1.97.13,2.6.44,2.03,1,6.96,8.09,7.63,10.6l8.32,3.01c.83-.04,5.7-3.12,6.26-3.81ZM199.84,116.84l-2.62-1.25-4.12,2.39-7.37-11.15c.22-1.04,2.12-1.48,1.83-2.76-.19-.86-3.54-6.46-4.32-7.7-.63-1-1.85-2.98-2.85-3.5l-.76,27.69,14.4-1.7,5.81-2.03ZM65.87,146.01c29.22,3.52,39.96-31.3,25.82-52.38l4.15,16.81c.74,14.37-5.33,29.65-20.23,33.71l-9.73,1.86ZM89.81,128.8c-18.9,24.69-56.06,5.34-60.72-21.23l-2.14-11.7c-2.12,26.07,17.85,49.88,45.08,46.21,7.07-.95,15.83-5.96,17.78-13.28ZM196.84,101.86l-6.02,3.41,5.77,7.74,5.49-4.04-5.24-7.11ZM189.36,106.35l-1.12,1.49c1.45,1.03,4.23,7.78,5.99,7.49s.63-1.47.01-2.24c-1.64-2.08-4.4-3.76-4.88-6.73ZM221.56,129.55c8.48-3.9,4.72-14.72,2.98-21.71l-7.41,6.36c3.69,4.44,5.01,9.64,4.43,15.35ZM56.13,133.3c-6.43-2.08-10.7-7.48-15.35-11.98l-7.84-12.73c1.29,10.48,8.77,19.64,18.2,24.08.82.39,4.7,2.37,4.99.63ZM213.33,137.79c8.2-5.55,8.08-18.65-.06-24.28-4.94-3.42-10.29-4.8-14.16.7,4.49,3.74,9.79,1.91,13.33,7.61,3.86,6.22-.87,9.6.88,15.97ZM95.07,137.78c6.16-5.38,7.61-14.66,8.22-22.45-2.16,1.08-1.23,4.87-1.68,6.91-.53,2.41-1.3,5.23-2.23,7.5-1.25,3.02-3.29,5.08-4.3,8.04ZM178.14,121.31v-5.24s-7.47,4.5-7.47,4.5c.61,1.54,5.32,1.23,4.5-.75l1.48,1.49v-1.49s1.5,1.49,1.5,1.49ZM211.07,131.05c2.34-6.12-.62-11.73-7.22-12.47-7.27,1.52-14.95,3.46-22.35,4.23-8.46.87-18.95-.27-26.75.94-3.05.47-6.8,1.99-7.31,5.41-.06,2.97,26.11,2.85,28.87,2.67,6.06-.38,9.31-3.27,12.77-3.69,7.12-.85,15.55-.39,22,2.91ZM149.7,122.82c-5.9,1.06-17.07-3.74-22.06-3.04-.88.12-1.53.32-1.78,1.27l-.1,4.75,1.76-2.9c4.73.89,2.84,3.8,3.95,4.44.58.34,12.59,2.4,13.25,2.26l4.98-6.78ZM201.35,144.52v-11.6c0-.49-1.17-2.97-1.97-3.27l-11.42.73c-.07,4.11.47,8.16.66,12.28.04.92-.57,2.78.75,2.61v-10.85c0-.45-.76-1.08-.09-2.11,1.38-2.11,8.12-.99,10.57-1.26v12.35c0,.13,1.01,1.18,1.5,1.12ZM185.63,132.54c-12.62,1.75-25.74,2.78-38.17-.74.48,2.69.2,11.45,2.01,12.77,3.49,2.56,21.23,3.22,26.05,2.94,3.69-.22,7.83-1.53,11.61-1.49l-1.5-13.47ZM197.6,132.54l-6.74.76.75,10.47,6.73-.76-.75-10.47ZM210.96,139.91l.11-6.61c-1.68.66-.11,3.61-1.11,5.24-.51.84-5.07,2.8-5.62,2.23l-.74-4.48v7.48s7.36-3.86,7.36-3.86Z"/>
    <polygon points="14.6 165.48 24.32 193.93 32.93 165.48 46.78 165.48 47.9 166.6 47.9 203.65 38.92 203.65 38.92 172.22 28.74 203.7 18.82 203.55 8.98 172.96 8.98 203.65 0 203.65 0 165.48 14.6 165.48"/>
    <polygon points="243.64 165.48 253.37 194.68 261.98 165.48 276.95 165.48 276.95 203.65 267.96 203.65 267.96 172.96 258.13 203.55 248.21 203.7 238.02 172.22 238.02 203.65 229.04 203.65 229.04 166.6 230.16 165.48 243.64 165.48"/>
    <polygon points="154.94 165.48 154.94 181.2 172.16 181.2 172.16 165.48 181.14 165.48 181.14 203.65 172.16 203.65 172.16 187.93 154.94 187.93 154.94 203.65 145.96 203.65 145.96 165.48 154.94 165.48"/>
    <path d="M162.25,219.57c32.76-4.89,28.68,49.01-3.02,38.55-16-5.28-14.96-35.87,3.02-38.55ZM166,226.31c-8.84.29-9.51,9.69-8.84,16.67.76,7.96,7.41,12.01,14.51,7.72,6.63-4,6.81-24.8-5.67-24.39Z"/>
    <path d="M82.25,165.57l12.81,38.08-8.26-.34-3.46-7.02-16.81.32-2.27,6.94-8.88.1,13.09-37.43,13.77-.65ZM81.59,189.43c-1.82-4.73-3.15-10.88-5.21-15.37-.34-.74-.46-1.76-1.52-1.84l-5.25,17.21h11.98Z"/>
    <polygon points="220.06 165.48 220.06 172.22 199.1 172.22 199.1 181.2 218.56 181.2 218.56 187.19 199.1 187.19 199.1 196.92 220.06 196.92 220.06 203.65 190.12 203.65 190.12 165.48 220.06 165.48"/>
    <path d="M105.54,251.56h20.96v6.74h-32.93l.16-7.34c5.97-4.47,14.2-8.77,19.66-13.64,12.82-11.4-12.32-17.72-11.62-1.52l-8.24-.31c-1.9-1.16,1.82-9,3.03-10.5,6.32-7.87,27.02-8.45,29.02,3.17s-13.27,16.76-20.04,23.4Z"/>
    <path d="M115.27,191.3c-.93-4.56-10.74-17.84-13.06-23.61-.31-.77-.59-1.33-.41-2.2,2.54.38,7.53-.89,9.36.73,2.27,2.02,7.28,17.7,8.23,17.98,1.48.44,1.06-.75,1.48-1.48,1.35-2.35,7.19-16.61,7.99-17.11l9.61-.11c1.21.89-14.22,24.49-14.22,26.56v11.6h-8.98c-.5-3.65.69-8.96,0-12.35Z"/>
    <rect x="133.23" y="250.81" width="8.99" height="7.49"/>
    <path d="M166.91,22.52c.19,1.28-1.78.8-2.6.73-4.7-.39-8.24-.72-13.11,0l6.32-1.52,9.39.78Z"/>
    <path d="M172.91,82.39c-.2-3.46,1.12-7.08,3.37-9.71,3.7,4.7,4.31,10.5-3.37,9.71Z"/>
  </g>
</svg>