<?xml version="1.0" encoding="UTF-8"?>
<svg id="Layer_1" xmlns="http://www.w3.org/2000/svg" version="1.1" viewBox="0 0 401 400">
  <!-- Generator: Adobe Illustrator 29.0.1, SVG Export Plug-In . SVG Version: 2.1.0 Build 192)  -->
  <defs>
    <style>
      .st0 {
        fill: #fff;
      }
    </style>
  </defs>
  <path class="st0" d="M233,264c12.1-21.2,16.3-46.3,18-70.5.6-8.7,1.1-20.4,1.1-29,0-3.2-.8-16.2-1.5-18.5-2.1-6.8-13.7-22.5-17.7-30.3-.8-1.6-2.4-3.9-2.3-5.7,26.9,15.1,66.5,37.6,81.7,65.3,5.3,9.7,3.3,11.5-1,21.4-14,32-44.4,58.2-78.2,67.3h0Z"/>
  <path class="st0" d="M116,234c26.6,0,52.3-10.9,75.7-22.8,6.8-3.5,30.3-16,34.3-20.7,5.4-6.2,12.4-21.9,17.2-29.8,1.3-2.2,2.7-5.3,4.8-6.7l-1,43.5c-2.7,20-4.6,42.3-14.8,60.2-5.1,8.9-7.2,9.5-17.7,10.3-36.3,3-73.4-7-98.5-34h0Z"/>
  <path class="st0" d="M218,191l-22,13.5c-26.2,12.8-54.9,28.1-85,25-28.2-29.9-38.1-72.5-29-112.5,3.7,4.6,6.3,9.8,10,14.5,11.9,15.1,31.8,29.5,48.1,39.9,4,2.6,31.5,19.6,33.4,19.6h44.5Z"/>
  <path class="st0" d="M182,103l45.6-24.9c12.9-5.7,49.1-19,61.6-12.9,3.6,1.8,12.5,15,14.9,19.1,16.5,27.4,21.6,61.7,13.3,92.7-13.1-22.8-35.8-40.3-57.6-54.4-4.4-2.8-31.7-19.6-34.4-19.6h-43.5,0Z"/>
  <path class="st0" d="M284,60c-31.8.9-63.2,15.5-90.3,31.2-4.1,2.4-16.6,9.1-19.1,11.9-7,7.7-12.9,25.4-19.7,34.3-.8,1-1.3,2.5-2.4.7-2.1-3.7.3-20.5.5-25.5,1.1-23.6,2.3-47.2,11.8-69.2,6.1-14.1,7.7-16.1,23.7-17.3,35.2-2.6,70.9,8.3,95.5,34h0Z"/>
  <path class="st0" d="M170,184c-1.5,1.2-29.9-16.9-33.3-19.2-20.3-13.7-42-30.8-52.4-53.5,11.4-39.4,43.4-69.3,82.3-81.3l-8.5,20.5c-9.7,31.6-10.2,65.5-8.2,98.2l20.2,35.3h0Z"/>
  <path class="st0" d="M74.8,314.2l7.7,18.8,7-18,8.4-.8,3.6,31.9,12.6-31.9c.6-.5,6.8-.3,7.9.4,2.4,1.5,10.9,29.2,14,33.5h-8.9c0-.1-2-6.4-2-6.4l-12.5-.5-4.3,6.7-15.3.2-1.5-20-6.6,19.9c-1.7.3-4.2.5-5.4-.9-1-1.1-4.1-12.3-5-15-.5-1.4.2-3.5-2-3l-1.5,19h-8l3-34,8.8.2h0ZM122,334l-3.5-9-3.5,9h7Z"/>
  <path class="st0" d="M233.8,314.2l7.7,18.8,7-18,8.4-.9,3.1,33.9h-8l-1.5-20-6.6,19.9c-1.7.3-4.2.5-5.4-.9-1-1.1-4.1-12.3-5-15-.5-1.4.2-3.5-2-3l-1.5,19h-8l3-34,8.8.2h0Z"/>
  <polygon class="st0" points="168 314 176 314 176.6 327 187 327 187 314 195 314 195 348 187 348 187 334 176 334 176 348 168 348 168 314"/>
  <path class="st0" d="M318.7,313.2c23.9-4.9,22.9,42.6-1,34.5-14.1-4.8-12.2-31.8,1-34.5ZM320.7,320.2c-6.8,2-6.7,22,1.8,21.8,7.7-.2,8.1-24.7-1.8-21.8Z"/>
  <path class="st0" d="M5,341v53h54.5c1.8,0,2.6,5-1,5H1.5l-1.5-1.5v-56l1.6-1.4,3.4.9Z"/>
  <path class="st0" d="M58,5H5v54.5c0,1.9-5,1.9-5,0V1.5L1.5,0h55l1.5,5Z"/>
  <path class="st0" d="M396,6h-54.5l-1.5-2.5c.6-.5,2.2-2.5,2.5-2.5h57l1.5,1.5v56l-2.5,1.5c-.5-.6-2.5-2.2-2.5-2.5V6Z"/>
  <path class="st0" d="M396,395v-54.5c0-1.9,5-1.9,5,0v58l-1.5,1.5h-55c-1.9,0-1.9-5,0-5h51.5Z"/>
  <path class="st0" d="M263,348c-1.8-1.6,9.4-9.8,10.5-11,2.7-2.9,12.3-14.6,4.8-16.9-4.9-1.4-6.2,2.7-8.8,5.7l-5.5-3.5c5.8-16.5,31.1-10.2,23.8,8l-9.9,10.6h12v7h-27,0Z"/>
  <polygon class="st0" points="219 314 219 320 208 320 208 327 219 327 219 333.4 208 334 208 340.4 219 341 219 348 200 348 200 314 219 314"/>
  <path class="st0" d="M146,332.5c-.8-3.6-10.3-13.6-12-18l8.5-.6,7,10.1,7.5-9.5,9-.5c.9.7-12,17.2-12,18.5v15.5h-8c-.7-4.5.9-11.4,0-15.5h0Z"/>
  <path class="st0" d="M296.2,340.2c4-4,11.3,2,7.2,6.7-4.6,5.2-11.5-2.4-7.2-6.7Z"/>
</svg>